<svg version="1.2" baseProfile="tiny" id="EdgeSVG_PQ2p2" x="0px" y="0px" width="101.44px" height="58.583px" viewBox="0 0 101.44 58.583" xmlns:xlink="http://www.w3.org/1999/xlink" xmlns="http://www.w3.org/2000/svg">
  <linearGradient id="SVGID_1_" gradientUnits="userSpaceOnUse" x1="0" y1="29.2915" x2="101.4399" y2="29.2915">
    <stop offset="0" style="stop-color:#000000;stop-opacity:0.5"/>
    <stop offset="1" style="stop-color:#000000;stop-opacity:0.5"/>
  </linearGradient>
  <path fill="url(#SVGID_1_)" d="M2.72,58.583c-1.5,0-2.72-1.22-2.72-2.72V2.72C0,1.22,1.22,0,2.72,0h96c1.5,0,2.72,1.22,2.72,2.72&#xD;&#xA;&#x9;v53.143c0,1.5-1.22,2.72-2.72,2.72H2.72z"/>
  <path fill="#FFFFFF" d="M98.72,0.72h-96c-1.1,0-2,0.9-2,2v17.047h100V2.72C100.72,1.62,99.82,0.72,98.72,0.72z"/>
  <path fill="#EC1C2E" d="M0.72,55.869c0,1.081,0.869,1.963,1.942,1.994h96.115c1.072-0.031,1.942-0.914,1.942-1.994V38.815h-100&#xD;&#xA;&#x9;V55.869z"/>
  <rect x="0.72" y="19.768" fill="#006BB5" width="100" height="19.048"/>
  <path fill="#EC1C2E" d="M23.574,6.438c2.797,0,6.826,0.754,9.683,2.143c0,0,0.002,0-0.556,9.128&#xD;&#xA;&#x9;c-0.317,5.198-2.46,9.524-9.127,11.588c-6.667-2.064-8.81-6.39-9.127-11.588c-0.558-9.128-0.556-9.128-0.556-9.128&#xD;&#xA;&#x9;C16.749,7.192,20.777,6.438,23.574,6.438z"/>
  <path fill="#006BB5" d="M23.574,6.438c2.56,0,6.165,0.642,8.945,1.813c0,0,0.019-0.121-0.566,9.324&#xD;&#xA;&#x9;c-0.318,5.138-2.321,8.972-8.378,10.928c-6.057-1.956-8.06-5.791-8.378-10.928c-0.585-9.444-0.567-9.324-0.567-9.324&#xD;&#xA;&#x9;C17.409,7.08,21.014,6.438,23.574,6.438z"/>
  <g>
    <path fill="#FFFFFF" d="M23.574,23.962c1.2,0,1.2-0.608,2.374-0.608c1.173,0,1.173,0.608,2.373,0.608&#xD;&#xA;&#x9;&#x9;c0.453,0,0.735-0.084,0.974-0.192c0.207-0.293,0.394-0.594,0.562-0.906c-0.456,0.18-0.715,0.463-1.536,0.463&#xD;&#xA;&#x9;&#x9;c-1.2,0-1.2-0.607-2.373-0.607c-1.173,0-1.173,0.607-2.374,0.607c-1.201,0-1.201-0.607-2.374-0.607&#xD;&#xA;&#x9;&#x9;c-1.173,0-1.173,0.607-2.374,0.607c-0.819,0-1.079-0.283-1.536-0.463c0.168,0.312,0.355,0.612,0.563,0.906&#xD;&#xA;&#x9;&#x9;c0.239,0.108,0.521,0.192,0.973,0.192c1.201,0,1.201-0.608,2.374-0.608C22.374,23.354,22.374,23.962,23.574,23.962z"/>
    <path fill="#FFFFFF" d="M23.574,27.709c2.285-0.769,3.924-1.841,5.08-3.131c-0.101,0.012-0.209,0.018-0.333,0.018&#xD;&#xA;&#x9;&#x9;c-1.2,0-1.2-0.607-2.373-0.607c-1.173,0-1.173,0.607-2.374,0.607c-1.201,0-1.201-0.607-2.374-0.607&#xD;&#xA;&#x9;&#x9;c-1.173,0-1.173,0.607-2.374,0.607c-0.123,0-0.232-0.006-0.333-0.018C19.65,25.869,21.289,26.941,23.574,27.709z"/>
    <path fill="#FFFFFF" d="M23.574,22.691c1.2,0,1.2-0.607,2.374-0.607c1.173,0,1.173,0.607,2.373,0.607&#xD;&#xA;&#x9;&#x9;c0.651,0,1.281-0.274,1.645-0.636c0.544-0.545,0.707-1.043,0.835-1.73l-3.613-4.399l-1.446,1.759l-2.168-4.051l-2.168,4.051&#xD;&#xA;&#x9;&#x9;l-1.446-1.759l-3.613,4.399c0.128,0.687,0.291,1.185,0.835,1.73c0.363,0.362,0.994,0.636,1.644,0.636&#xD;&#xA;&#x9;&#x9;c1.201,0,1.201-0.607,2.374-0.607C22.374,22.084,22.374,22.691,23.574,22.691z"/>
  </g>
  <g>
    <polygon fill="#FFF100" points="26.153,9.455 26.424,8.897 27.044,8.941 26.694,8.423 27.044,7.905 26.424,7.949 26.153,7.391 &#xD;&#xA;&#x9;&#x9;25.883,7.949 25.263,7.905 25.614,8.423 25.263,8.941 25.883,8.897 &#x9;"/>
    <polygon fill="#FFF100" points="20.994,9.455 20.724,8.897 20.104,8.941 20.454,8.423 20.104,7.905 20.724,7.949 20.994,7.391 &#xD;&#xA;&#x9;&#x9;21.266,7.949 21.885,7.905 21.535,8.423 21.885,8.941 21.266,8.897 &#x9;"/>
    <polygon fill="#FFF100" points="23.574,12.568 23.303,12.01 22.683,12.055 23.034,11.537 22.683,11.018 23.303,11.063 &#xD;&#xA;&#x9;&#x9;23.574,10.506 23.845,11.063 24.464,11.018 24.115,11.537 24.464,12.055 23.845,12.01 &#x9;"/>
  </g>
</svg>